<mxfile host="Electron" modified="2023-10-18T19:30:34.859Z" agent="Mozilla/5.0 (Windows NT 10.0; Win64; x64) AppleWebKit/537.36 (KHTML, like Gecko) draw.io/22.0.2 Chrome/114.0.5735.289 Electron/25.8.4 Safari/537.36" etag="QyaLIIy80QcNpVyJ1Y3C" version="22.0.2" type="device">
  <diagram name="page-1" id="nTteX_-L-bd6lsjCAH_5">
    <mxGraphModel dx="987" dy="577" grid="1" gridSize="10" guides="1" tooltips="1" connect="1" arrows="1" fold="1" page="1" pageScale="1" pageWidth="827" pageHeight="1169" math="0" shadow="0">
      <root>
        <mxCell id="0" />
        <mxCell id="1" parent="0" />
        <mxCell id="h3aXGca7HBvmmgDs8vRC-28" style="edgeStyle=orthogonalEdgeStyle;rounded=0;orthogonalLoop=1;jettySize=auto;html=1;exitX=0.25;exitY=1;exitDx=0;exitDy=0;entryX=0;entryY=0.5;entryDx=0;entryDy=0;" edge="1" parent="1" source="0EIq4OgII-BHYrVc7AHv-1" target="h3aXGca7HBvmmgDs8vRC-18">
          <mxGeometry relative="1" as="geometry" />
        </mxCell>
        <mxCell id="h3aXGca7HBvmmgDs8vRC-29" style="edgeStyle=orthogonalEdgeStyle;rounded=0;orthogonalLoop=1;jettySize=auto;html=1;exitX=0.25;exitY=1;exitDx=0;exitDy=0;entryX=0;entryY=0.5;entryDx=0;entryDy=0;" edge="1" parent="1" source="0EIq4OgII-BHYrVc7AHv-1" target="h3aXGca7HBvmmgDs8vRC-19">
          <mxGeometry relative="1" as="geometry" />
        </mxCell>
        <mxCell id="h3aXGca7HBvmmgDs8vRC-31" style="edgeStyle=orthogonalEdgeStyle;rounded=0;orthogonalLoop=1;jettySize=auto;html=1;exitX=0.25;exitY=1;exitDx=0;exitDy=0;entryX=0;entryY=0.5;entryDx=0;entryDy=0;" edge="1" parent="1" source="0EIq4OgII-BHYrVc7AHv-1" target="h3aXGca7HBvmmgDs8vRC-30">
          <mxGeometry relative="1" as="geometry" />
        </mxCell>
        <mxCell id="h3aXGca7HBvmmgDs8vRC-33" style="edgeStyle=orthogonalEdgeStyle;rounded=0;orthogonalLoop=1;jettySize=auto;html=1;exitX=0.25;exitY=1;exitDx=0;exitDy=0;entryX=0;entryY=0.5;entryDx=0;entryDy=0;" edge="1" parent="1" source="0EIq4OgII-BHYrVc7AHv-1" target="h3aXGca7HBvmmgDs8vRC-32">
          <mxGeometry relative="1" as="geometry" />
        </mxCell>
        <mxCell id="h3aXGca7HBvmmgDs8vRC-45" style="edgeStyle=orthogonalEdgeStyle;rounded=0;orthogonalLoop=1;jettySize=auto;html=1;exitX=0.5;exitY=0;exitDx=0;exitDy=0;entryX=0.5;entryY=1;entryDx=0;entryDy=0;dashed=1;" edge="1" parent="1" source="0EIq4OgII-BHYrVc7AHv-1" target="h3aXGca7HBvmmgDs8vRC-13">
          <mxGeometry relative="1" as="geometry" />
        </mxCell>
        <mxCell id="0EIq4OgII-BHYrVc7AHv-1" value="AreaPlugin" style="rounded=0;whiteSpace=wrap;html=1;" parent="1" vertex="1">
          <mxGeometry x="220" y="90.5" width="120" height="60" as="geometry" />
        </mxCell>
        <mxCell id="h3aXGca7HBvmmgDs8vRC-41" style="edgeStyle=orthogonalEdgeStyle;rounded=0;orthogonalLoop=1;jettySize=auto;html=1;exitX=0.75;exitY=1;exitDx=0;exitDy=0;entryX=1;entryY=0.5;entryDx=0;entryDy=0;" edge="1" parent="1" source="h3aXGca7HBvmmgDs8vRC-1" target="h3aXGca7HBvmmgDs8vRC-6">
          <mxGeometry relative="1" as="geometry" />
        </mxCell>
        <mxCell id="h3aXGca7HBvmmgDs8vRC-42" style="edgeStyle=orthogonalEdgeStyle;rounded=0;orthogonalLoop=1;jettySize=auto;html=1;exitX=0.75;exitY=1;exitDx=0;exitDy=0;entryX=1;entryY=0.5;entryDx=0;entryDy=0;" edge="1" parent="1" source="h3aXGca7HBvmmgDs8vRC-1" target="h3aXGca7HBvmmgDs8vRC-8">
          <mxGeometry relative="1" as="geometry" />
        </mxCell>
        <mxCell id="h3aXGca7HBvmmgDs8vRC-1" value="AreaExtensions" style="rounded=0;whiteSpace=wrap;html=1;" vertex="1" parent="1">
          <mxGeometry x="440" y="20" width="120" height="60" as="geometry" />
        </mxCell>
        <mxCell id="h3aXGca7HBvmmgDs8vRC-36" style="edgeStyle=orthogonalEdgeStyle;rounded=0;orthogonalLoop=1;jettySize=auto;html=1;exitX=1;exitY=0.5;exitDx=0;exitDy=0;entryX=0;entryY=0.5;entryDx=0;entryDy=0;" edge="1" parent="1" source="h3aXGca7HBvmmgDs8vRC-2" target="0EIq4OgII-BHYrVc7AHv-1">
          <mxGeometry relative="1" as="geometry" />
        </mxCell>
        <mxCell id="h3aXGca7HBvmmgDs8vRC-2" value="NodeEditor" style="rounded=0;whiteSpace=wrap;html=1;" vertex="1" parent="1">
          <mxGeometry x="20" y="90" width="120" height="60" as="geometry" />
        </mxCell>
        <mxCell id="h3aXGca7HBvmmgDs8vRC-4" value="use" style="rounded=1;whiteSpace=wrap;html=1;arcSize=50;" vertex="1" parent="1">
          <mxGeometry x="160" y="105" width="40" height="30" as="geometry" />
        </mxCell>
        <mxCell id="h3aXGca7HBvmmgDs8vRC-46" style="edgeStyle=orthogonalEdgeStyle;rounded=0;orthogonalLoop=1;jettySize=auto;html=1;exitX=0;exitY=0.5;exitDx=0;exitDy=0;entryX=1;entryY=0.5;entryDx=0;entryDy=0;dashed=1;" edge="1" parent="1" source="h3aXGca7HBvmmgDs8vRC-6" target="0EIq4OgII-BHYrVc7AHv-1">
          <mxGeometry relative="1" as="geometry" />
        </mxCell>
        <mxCell id="h3aXGca7HBvmmgDs8vRC-6" value="selector" style="rounded=0;whiteSpace=wrap;html=1;" vertex="1" parent="1">
          <mxGeometry x="410" y="103.13" width="100" height="35" as="geometry" />
        </mxCell>
        <mxCell id="h3aXGca7HBvmmgDs8vRC-47" style="edgeStyle=orthogonalEdgeStyle;rounded=0;orthogonalLoop=1;jettySize=auto;html=1;exitX=0;exitY=0.5;exitDx=0;exitDy=0;entryX=1;entryY=0.5;entryDx=0;entryDy=0;dashed=1;" edge="1" parent="1" source="h3aXGca7HBvmmgDs8vRC-8" target="0EIq4OgII-BHYrVc7AHv-1">
          <mxGeometry relative="1" as="geometry" />
        </mxCell>
        <mxCell id="h3aXGca7HBvmmgDs8vRC-8" value="selectableNodes" style="rounded=0;whiteSpace=wrap;html=1;" vertex="1" parent="1">
          <mxGeometry x="410" y="151.88" width="100" height="35" as="geometry" />
        </mxCell>
        <mxCell id="h3aXGca7HBvmmgDs8vRC-13" value="html element" style="rounded=0;whiteSpace=wrap;html=1;" vertex="1" parent="1">
          <mxGeometry x="230" y="20" width="100" height="35" as="geometry" />
        </mxCell>
        <mxCell id="h3aXGca7HBvmmgDs8vRC-18" value="resize" style="rounded=1;whiteSpace=wrap;html=1;arcSize=50;" vertex="1" parent="1">
          <mxGeometry x="270" y="170.5" width="50" height="30" as="geometry" />
        </mxCell>
        <mxCell id="h3aXGca7HBvmmgDs8vRC-19" value="translate" style="rounded=1;whiteSpace=wrap;html=1;arcSize=50;" vertex="1" parent="1">
          <mxGeometry x="270" y="210.5" width="60" height="30" as="geometry" />
        </mxCell>
        <mxCell id="h3aXGca7HBvmmgDs8vRC-30" value="update" style="rounded=1;whiteSpace=wrap;html=1;arcSize=50;" vertex="1" parent="1">
          <mxGeometry x="270" y="250.5" width="60" height="30" as="geometry" />
        </mxCell>
        <mxCell id="h3aXGca7HBvmmgDs8vRC-32" value="destroy" style="rounded=1;whiteSpace=wrap;html=1;arcSize=50;" vertex="1" parent="1">
          <mxGeometry x="270" y="290.5" width="60" height="30" as="geometry" />
        </mxCell>
      </root>
    </mxGraphModel>
  </diagram>
</mxfile>
